<svg width="38" height="32" viewBox="0 0 38 32" fill="none" xmlns="http://www.w3.org/2000/svg">
<path fill-rule="evenodd" clip-rule="evenodd" d="M35.6766 11.1957V2.54179C35.6704 1.87064 35.3983 1.22933 34.92 0.758475C34.4417 0.28762 33.7962 0.0256279 33.1251 0.0299642H3.50764C2.83643 0.0254684 2.19083 0.287402 1.71248 0.758291C1.23414 1.22918 0.962104 1.87059 0.956055 2.54179V20.1709C0.962104 20.8421 1.23412 21.4836 1.71245 21.9545C2.19077 22.4255 2.83637 22.6876 3.50764 22.6833H11.9012L10.9406 23.7017H9.50092C9.3462 23.7017 9.1978 23.7632 9.0884 23.8726C8.979 23.982 8.91755 24.1304 8.91755 24.2851C8.91755 24.4398 8.979 24.5882 9.0884 24.6976C9.1978 24.807 9.3462 24.8684 9.50092 24.8684H17.7463V30.4953C17.7496 30.8892 17.9091 31.2658 18.1897 31.5422C18.4704 31.8187 18.8492 31.9725 19.2432 31.97H25.6131C26.007 31.9725 26.3857 31.8188 26.6664 31.5424C26.947 31.2661 27.1066 30.8897 27.1101 30.4959V29.3111H35.0849C35.619 29.3143 36.1327 29.1056 36.5132 28.7306C36.8937 28.3557 37.1099 27.8451 37.1145 27.3109V13.1073C37.1119 12.6765 36.9706 12.258 36.7116 11.9137C36.4527 11.5695 36.0898 11.3177 35.6766 11.1957ZM35.9292 13.1079V13.267H22.3022V13.1073C22.3041 12.8851 22.394 12.6727 22.5521 12.5166C22.7102 12.3606 22.9237 12.2735 23.1459 12.2744H35.0836C35.3062 12.2728 35.5203 12.3597 35.6788 12.5158C35.8374 12.672 35.9274 12.8853 35.9292 13.1079ZM25.6131 18.0363H22.3022V14.4331H35.9292V25.9839H27.1107V19.5109C27.1074 19.1169 26.9478 18.7403 26.667 18.4638C26.3862 18.1873 26.0072 18.0336 25.6131 18.0363ZM25.9253 20.2781H18.9311V19.5109C18.9314 19.4703 18.9397 19.43 18.9556 19.3926C18.9714 19.3551 18.9945 19.3211 19.0235 19.2926C19.0524 19.2641 19.0868 19.2415 19.1245 19.2263C19.1622 19.211 19.2025 19.2033 19.2432 19.2036H25.6131C25.6952 19.2031 25.7742 19.2352 25.8327 19.2928C25.8912 19.3504 25.9245 19.4288 25.9253 19.5109V20.2781ZM34.4919 3.12512V11.1089H23.1471C22.613 11.1055 22.0994 11.3141 21.7188 11.6888C21.3382 12.0635 21.1217 12.5738 21.1168 13.1079V18.0363H19.2432C18.8496 18.0339 18.4711 18.1875 18.1906 18.4636C17.91 18.7396 17.7502 19.1156 17.7463 19.5091H2.14085V3.12512H34.4919ZM18.9311 21.4454H25.9253V28.562H18.9311V21.4448V21.4454ZM3.50764 1.19666H33.1251C33.3807 1.19622 33.6314 1.26743 33.8487 1.40217C34.066 1.5369 34.2412 1.72979 34.3544 1.95901H2.27823C2.3914 1.72968 2.56658 1.53665 2.78388 1.4018C3.00117 1.26695 3.25191 1.19627 3.50764 1.19666ZM2.24207 20.6765H17.7463V21.5172H3.50764C3.23714 21.5178 2.97252 21.4382 2.74724 21.2885C2.52197 21.1387 2.34615 20.9255 2.24207 20.6758V20.6765ZM12.5581 23.7023L13.5223 22.6839H17.7493V23.7023H12.5611H12.5581ZM25.6131 30.8033H19.2432C19.1611 30.8037 19.0821 30.7717 19.0236 30.7141C18.9651 30.6565 18.9319 30.578 18.9311 30.4959V29.7282H25.9253V30.4953C25.9245 30.5774 25.8912 30.6558 25.8327 30.7134C25.7742 30.771 25.6952 30.8031 25.6131 30.8026V30.8033ZM35.0849 28.1438H27.1107V27.1524H35.9297V27.3116C35.9278 27.5338 35.8378 27.7462 35.6794 27.9022C35.521 28.0581 35.3071 28.1454 35.0849 28.1438Z" fill="#2B274B"/>
</svg>
