<?xml version="1.0" encoding="utf-8"?>
<!-- Generator: Adobe Illustrator 27.4.1, SVG Export Plug-In . SVG Version: 6.00 Build 0)  -->
<svg version="1.1" id="Шар_1" xmlns="http://www.w3.org/2000/svg" xmlns:xlink="http://www.w3.org/1999/xlink" x="0px" y="0px"
	 viewBox="0 0 811.7 798.6" style="enable-background:new 0 0 811.7 798.6;" xml:space="preserve">
<style type="text/css">
	.st0{fill:#FFFFFF;fill-opacity:8.000000e-02;}
	.st1{fill:#FFFFFF;fill-opacity:0.3;}
	.st2{fill:none;stroke:#FFFFFF;stroke-width:0.7751;stroke-opacity:0.15;}
	.st3{fill:#FFFFFF;fill-opacity:0.13;}
	.st4{fill:#FFFFFF;fill-opacity:0.4;}
	.st5{fill:none;stroke:#FFFFFF;stroke-width:0.7751;stroke-opacity:0.13;}
	.st6{fill:#FFFFFF;fill-opacity:0.17;}
	.st7{fill:none;stroke:#43316E;stroke-width:0.7751;stroke-opacity:0.3;}
</style>
<path class="st0" d="M385.7,46.6L385.7,46.6c196.1,0,355,158.9,355,355l0,0c0,196.1-158.9,355-355,355l0,0
	c-196.1,0-355-158.9-355-355l0,0C30.7,205.5,189.6,46.6,385.7,46.6z"/>
<path class="st1" d="M563.2,765L563.2,765c1.7,3.9-0.1,8.5-4,10.2l0,0c-3.9,1.7-8.5-0.1-10.2-4l0,0c-1.7-3.9,0.1-8.5,4-10.2l0,0
	C557,759.2,561.5,761,563.2,765z"/>
<path class="st2" d="M771.1,241L771.1,241c87.4,202.2-5.6,436.9-207.7,524.3h0C361.2,852.7,126.5,759.7,39,557.6l0,0
	c-87.4-202.2,5.6-436.9,207.7-524.3l0,0C448.9-54.2,683.7,38.8,771.1,241z"/>
<path class="st3" d="M385.7,122.6L385.7,122.6c154.1,0,279,124.9,279,279v0c0,154.1-124.9,279-279,279h0c-154.1,0-279-124.9-279-279
	v0C106.7,247.5,231.6,122.6,385.7,122.6z"/>
<path class="st4" d="M194.9,604.7L194.9,604.7c-1.9,2-5.1,2.1-7.1,0.2l0,0c-2-1.9-2.1-5.1-0.2-7.1h0c1.9-2,5.1-2.1,7.1-0.2l0,0
	C196.7,599.4,196.8,602.6,194.9,604.7z"/>
<path class="st5" d="M588.7,592.4L588.7,592.4C483.3,704.6,307,710.1,194.9,604.7l0,0C82.7,499.3,77.2,322.9,182.6,210.8l0,0
	C288,98.6,464.4,93.2,576.5,198.6l0,0C688.7,304,694.1,480.3,588.7,592.4z"/>
<g>
	<path shape-rendering="crispEdges" class="st6" d="M385.7,228.8L385.7,228.8c95.5,0,172.8,77.4,172.8,172.8v0
		c0,95.5-77.4,172.8-172.8,172.8h0c-95.5,0-172.8-77.4-172.8-172.8v0C212.8,306.1,290.2,228.8,385.7,228.8z"/>
	<path shape-rendering="crispEdges" class="st7" d="M385.7,229.1L385.7,229.1c95.2,0,172.5,77.2,172.5,172.5v0
		c0,95.2-77.2,172.5-172.5,172.5h0c-95.2,0-172.5-77.2-172.5-172.5v0C213.2,306.4,290.4,229.1,385.7,229.1z"/>
</g>
</svg>
