<svg width="26" height="26" viewBox="0 0 26 26" fill="none" xmlns="http://www.w3.org/2000/svg">
<path fill-rule="evenodd" clip-rule="evenodd" d="M23.7217 4.82375V2.08222L24.6644 2.78681L25.1317 2.16064L23.3317 0.809998L21.5316 2.16188L21.9989 2.78762L22.9415 2.08304V4.82457C22.9405 5.34364 22.7338 5.84113 22.3667 6.20813C21.9996 6.57512 21.5021 6.78171 20.983 6.78268H19.4146C18.8226 6.77497 18.2445 6.96269 17.77 7.31676C17.2954 7.67083 16.9508 8.1715 16.7896 8.74121H16.2289L16.2127 9.52464H16.6718V10.7436C16.4781 10.7145 16.2826 10.6991 16.0867 10.6977C15.1779 10.698 14.2954 11.0024 13.5797 11.5624C13.3232 11.2892 13.0135 11.0716 12.6697 10.9228C12.3258 10.7741 11.9551 10.6975 11.5805 10.6977C11.316 10.6987 11.0531 10.7387 10.8003 10.8164V8.3479C10.7991 7.72456 10.5508 7.12711 10.1097 6.6866C9.66871 6.2461 9.071 5.99849 8.44766 5.99806H8.05755V5.21466H7.27335V5.99806H6.09904C5.47611 5.9986 4.87886 6.24638 4.43849 6.68698C3.99812 7.12757 3.75064 7.72496 3.75042 8.3479V9.1309C3.74989 9.33869 3.66709 9.53779 3.52012 9.68468C3.37316 9.83156 3.17401 9.91427 2.96623 9.9147H2.18198L2.889 8.97446L2.25916 8.50474L0.910156 10.306L2.26323 12.1073L2.889 11.638L2.18198 10.6977H2.96623C3.38189 10.6976 3.7805 10.5325 4.07457 10.2388C4.36864 9.945 4.53413 9.54657 4.53467 9.1309V8.3479C4.53451 8.1423 4.57483 7.93867 4.65336 7.74866C4.73189 7.55866 4.84707 7.38597 4.99234 7.24048C5.1376 7.09498 5.31012 6.97953 5.50001 6.90071C5.68989 6.82188 5.89344 6.78123 6.09904 6.78107H8.44766C8.86332 6.78118 9.26193 6.94624 9.556 7.24C9.85007 7.53377 10.0156 7.93223 10.0161 8.3479V11.1951C9.84425 11.3146 9.68615 11.4528 9.54474 11.6071C9.25269 11.5237 8.95048 11.4813 8.64676 11.4811C7.68308 11.4281 6.72268 11.6333 5.86477 12.0754C5.00687 12.5175 4.28251 13.1807 3.76649 13.9963C3.25047 14.8119 2.96149 15.7504 2.92937 16.715C2.89726 17.6796 3.12318 18.6353 3.58381 19.4834C3.4335 19.8661 3.35634 20.2735 3.35629 20.6846C3.35769 21.5676 3.70926 22.414 4.33388 23.0382C4.95851 23.6624 5.80517 24.0133 6.6882 24.0141C6.83369 24.0129 6.97896 24.002 7.12301 23.9816C7.15145 23.9783 7.17988 23.9734 7.20426 23.969C7.34845 23.9475 7.49103 23.9161 7.63093 23.8751C8.73571 23.5182 9.91375 23.4517 11.0517 23.682C12.1896 23.9123 13.2491 24.4316 14.1282 25.19C14.6289 24.5591 15.3419 24.1317 16.1343 23.9876C16.9268 23.8435 17.7445 23.9924 18.4353 24.4066C19.3183 24.406 20.165 24.0551 20.7896 23.431C21.4143 22.8069 21.7658 21.9605 21.7672 21.0775C21.5418 20.4776 21.4956 19.8251 21.6341 19.1994C21.7726 18.5737 22.0899 18.0017 22.5474 17.553C22.5463 17.356 22.5286 17.1594 22.4946 16.9654H22.5474V16.1816H22.2508C22.0539 15.7475 21.7664 15.3605 21.4075 15.0467C21.0487 14.733 20.6269 14.4997 20.1704 14.3624C20.0892 13.5926 19.791 12.8618 19.3104 12.2549C18.8299 11.6481 18.1868 11.1904 17.456 10.935V9.5234C17.4566 9.00417 17.6631 8.50636 18.0303 8.13925C18.3975 7.77214 18.8954 7.56572 19.4146 7.56529H20.983C21.7096 7.56432 22.406 7.27509 22.9195 6.76108C23.433 6.24707 23.7215 5.5503 23.7217 4.82375ZM19.4105 14.6883L19.4187 14.9975L19.7234 15.0581C20.0624 15.1278 20.3836 15.266 20.6673 15.4643C20.951 15.6626 21.1912 15.9168 21.3731 16.2113V16.965H21.686C21.7377 17.1566 21.765 17.3541 21.7672 17.5525C21.7675 18.1682 21.542 18.7625 21.1334 19.223C20.8442 18.8339 20.4721 18.5139 20.0442 18.2861C19.6162 18.0583 19.1431 17.9283 18.6588 17.9057L18.606 18.6371C19.2534 18.6645 19.8643 18.9445 20.3079 19.4169C20.7514 19.8893 20.9923 20.5166 20.979 21.1645C20.9631 21.6335 20.8178 22.089 20.559 22.4806C20.3003 22.8721 19.9382 23.1844 19.5129 23.3829C19.0876 23.5814 18.6157 23.6583 18.1494 23.6051C17.6831 23.5519 17.2406 23.3707 16.8709 23.0815L16.7165 22.9596C16.2298 22.5169 15.934 21.9024 15.8917 21.2457L15.1115 21.2977C15.1661 22.1153 15.5206 22.8839 16.107 23.4562C15.8395 23.7891 15.4923 24.0491 15.0975 24.2123C14.7028 24.3754 14.2734 24.4363 13.8488 24.3895C13.4243 24.3426 13.0185 24.1894 12.6689 23.9441C12.3193 23.6988 12.0372 23.3693 11.8487 22.986L11.6089 22.4984L11.2229 22.882C10.8782 23.2278 10.4403 23.4658 9.96258 23.5668C9.4849 23.6678 8.98815 23.6275 8.53297 23.4509C8.98897 23.1475 9.36293 22.7361 9.62167 22.2534C9.88041 21.7707 10.0159 21.2315 10.0161 20.6838C10.0161 20.6025 10.0039 20.5188 9.99983 20.4371C10.6262 20.3279 11.2084 20.0422 11.678 19.6135L11.1497 19.0357C10.7866 19.3675 10.3349 19.5867 9.84949 19.6667C9.58627 18.8362 9.00682 18.1426 8.23636 17.7358L7.87065 18.429C8.30746 18.6584 8.66814 19.0099 8.9088 19.4406C9.14946 19.8713 9.25974 20.3627 9.22615 20.8549C9.19256 21.3472 9.01656 21.819 8.71962 22.2131C8.42269 22.6071 8.01762 22.9063 7.5537 23.0742C7.4176 23.1236 7.27759 23.1616 7.13516 23.1876C7.12703 23.1876 7.11487 23.1904 7.10674 23.1916C6.96855 23.216 6.82852 23.2285 6.6882 23.229C6.25846 23.2303 5.83544 23.1225 5.45869 22.9158C5.08194 22.709 4.76379 22.4101 4.53402 22.0469C4.30425 21.6837 4.17037 21.2682 4.1449 20.8392C4.11943 20.4102 4.20321 19.9818 4.38839 19.594L4.49806 19.3684L4.33557 19.1758C4.05495 18.8368 3.86693 18.4309 3.78986 17.9976C3.71278 17.5643 3.74926 17.1184 3.89575 16.7034C4.04225 16.2883 4.29373 15.9184 4.62574 15.6295C4.95774 15.3406 5.35895 15.1426 5.79022 15.0548L6.09091 14.9947L6.10718 14.6895C6.12541 14.2833 6.2408 13.8873 6.44372 13.5348C6.64664 13.1824 6.93115 12.8837 7.27335 12.6639V13.436H8.05755V12.332C8.25053 12.2856 8.44827 12.2617 8.64676 12.2609C8.95232 12.2619 9.25517 12.3182 9.54067 12.4271L9.82107 12.5327L9.99576 12.2889C10.0039 12.2812 10.008 12.2735 10.0161 12.2657V14.2161H10.8003V11.651C11.0457 11.5407 11.3115 11.4831 11.5805 11.4819C11.8467 11.4822 12.1101 11.5367 12.3546 11.642C12.5991 11.7474 12.8196 11.9014 13.0026 12.0947C12.4561 12.6637 12.0884 13.3807 11.9453 14.1566C11.8021 14.9325 11.8897 15.7334 12.1973 16.4601C12.5048 17.1867 13.0187 17.8072 13.6754 18.2446C14.3321 18.6821 15.1026 18.9173 15.8917 18.9211V18.1377C15.0344 18.0877 14.227 17.7181 13.6289 17.1018C13.0308 16.4855 12.6856 15.6674 12.6613 14.809C12.679 13.9877 12.9953 13.201 13.5512 12.5961L13.7747 12.4051C14.394 11.8128 15.2175 11.4814 16.0745 11.4799C16.2761 11.4806 16.4774 11.4987 16.6759 11.534V13.0463C16.6747 13.5654 16.468 14.0628 16.1009 14.4298C15.7339 14.7967 15.2364 15.0034 14.7174 15.0044H14.3232V15.7879H14.7174C15.4439 15.7869 16.1404 15.4976 16.6538 14.9836C17.1673 14.4696 17.4558 13.7729 17.456 13.0463V11.7757C18.0215 12.0299 18.5044 12.4376 18.8499 12.9525C19.1954 13.4673 19.3896 14.0687 19.4105 14.6883ZM19.0245 16.1816H20.1988V16.965H19.0245V16.1816ZM20.983 8.74042H22.1573V9.5234H20.983V8.74042ZM14.9083 9.15121L15.3025 8.47465C15.0179 8.30925 14.7791 8.07548 14.6076 7.79447L13.9412 8.20081C14.1784 8.594 14.5111 8.92091 14.9083 9.15121ZM13.539 6.78189C13.539 6.82252 13.543 6.86315 13.543 6.90378L14.3273 6.81683L14.3232 5.60676H13.539V6.7831V6.78189ZM13.539 3.25735H14.3232V4.43205H13.539V3.25735ZM23.4861 15.941L23.8639 16.6273C24.2654 16.4055 24.6059 16.0882 24.8554 15.7033L24.1971 15.2787C24.0185 15.5548 23.7742 15.7824 23.4861 15.941ZM24.5059 14.2235C24.5059 14.2698 24.506 14.3153 24.5019 14.3616L25.282 14.4157C25.2861 14.3523 25.2902 14.2881 25.2902 14.2235V13.0484H24.5059V14.2235ZM18.6303 8.74042H19.8087V9.5234H18.6303V8.74042ZM25.1967 10.7692L24.4409 10.9724C24.4849 11.1384 24.5067 11.3094 24.5059 11.4811V11.8728H25.2902V11.4811C25.2896 11.2408 25.2582 11.0015 25.1967 10.7692ZM24.5262 9.59085C24.2104 9.25901 23.8165 9.01161 23.3804 8.87124L23.1406 9.61687C23.4525 9.71828 23.7345 9.89529 23.9614 10.1321L24.5262 9.59085ZM13.539 2.08425H14.3232L15.2659 2.78884L15.7332 2.16309L13.9332 0.809998L12.129 2.16188L12.6004 2.78762L13.539 2.08425ZM7.27335 2.86768H8.05755V4.04239H7.27335V2.86768ZM7.27335 9.91755H8.05755V11.0902H7.27335V9.91552V9.91755ZM7.27335 7.56732H8.05755V8.74243H7.27335V7.56732ZM7.27335 14.6172H8.05755V15.7919H7.27335V14.6172ZM7.66748 1.79049L8.9962 2.78884L9.46756 2.16309L7.66748 0.809998L5.86334 2.16188L6.3347 2.78762L7.66748 1.79049Z" fill="#2B274B"/>
</svg>
