<svg width="10" height="11" viewBox="0 0 10 11" fill="none" xmlns="http://www.w3.org/2000/svg">
<path d="M1.46329 1.53836C1.46329 1.53836 1.70717 1.29448 2.19493 0.806714C2.68269 0.318953 3.61724 0.0750713 4.99858 0.0750713C6.37993 0.0750713 7.55836 0.562834 8.53388 1.53836C9.50941 2.51388 9.99717 3.68841 9.99717 5.06195C9.99717 6.43549 9.50941 7.61002 8.53388 8.58554C7.55836 9.56107 6.37993 10.0488 4.99858 10.0488C3.61724 10.0488 2.43881 9.56107 1.46329 8.58554C0.487762 7.61002 0 6.43549 0 5.06195C0 3.68841 0.487762 2.51388 1.46329 1.53836ZM4.00355 2.5568V7.5671L6.48528 5.06195L4.00355 2.5568Z" fill="#FA3D3A"/>
</svg>
