<svg width="50" height="50" viewBox="0 0 50 50" fill="none" xmlns="http://www.w3.org/2000/svg">
<path fill-rule="evenodd" clip-rule="evenodd" d="M24.9998 12.9107C22.8708 12.91 20.801 13.612 19.1117 14.9077C17.4223 16.2035 16.2078 18.0205 15.6566 20.077C15.1054 22.1334 15.2483 24.3143 16.0631 26.2812C16.878 28.2481 18.3192 29.8912 20.1632 30.9554V31.866C19.9136 32.053 19.7109 32.2957 19.5714 32.5747C19.4319 32.8537 19.3594 33.1613 19.3596 33.4732C19.6275 33.8179 19.7729 34.242 19.7729 34.6785C19.7729 35.1151 19.6275 35.5392 19.3596 35.8839C19.3594 36.1487 19.4113 36.411 19.5125 36.6558C19.6137 36.9005 19.762 37.123 19.9492 37.3104C20.1363 37.4977 20.3585 37.6464 20.6032 37.7478C20.8478 37.8493 21.11 37.9016 21.3748 37.9017H28.6293C28.8941 37.9016 29.1563 37.8493 29.4009 37.7478C29.6455 37.6464 29.8678 37.4977 30.0549 37.3104C30.242 37.123 30.3904 36.9005 30.4916 36.6558C30.5927 36.411 30.6447 36.1487 30.6444 35.8839C30.6428 35.4477 30.4979 35.0242 30.2319 34.6785C30.3931 34.469 30.5109 34.2294 30.5785 33.9738C30.6461 33.7182 30.662 33.4518 30.6254 33.1899C30.5889 32.9281 30.5005 32.6762 30.3655 32.4489C30.2305 32.2216 30.0515 32.0234 29.8391 31.866V30.9554C31.6833 29.8911 33.1246 28.2477 33.9394 26.2805C34.7542 24.3133 34.8969 22.1323 34.3454 20.0757C33.7938 18.0191 32.5788 16.2019 30.889 14.9064C29.1992 13.6109 27.1291 12.9094 24.9998 12.9107ZM28.6275 36.2857H21.3721C21.2656 36.2857 21.1634 36.2434 21.088 36.168C21.0127 36.0927 20.9703 35.9904 20.9703 35.8839C20.9703 35.7773 21.0127 35.6752 21.088 35.5998C21.1634 35.5245 21.2656 35.4821 21.3721 35.4821H28.6275C28.734 35.4821 28.8362 35.5245 28.9116 35.5998C28.9869 35.6752 29.0293 35.7773 29.0293 35.8839C29.0293 35.9904 28.9869 36.0927 28.9116 36.168C28.8362 36.2434 28.734 36.2857 28.6275 36.2857ZM28.6275 33.8749H21.3721C21.2644 33.8749 21.1611 33.8322 21.0849 33.756C21.0087 33.6799 20.9659 33.5765 20.9659 33.4687C20.9659 33.361 21.0087 33.2576 21.0849 33.1814C21.1611 33.1052 21.2644 33.0625 21.3721 33.0625H28.6275C28.7352 33.0625 28.8386 33.1052 28.9147 33.1814C28.9909 33.2576 29.0337 33.361 29.0337 33.4687C29.0337 33.5765 28.9909 33.6799 28.9147 33.756C28.8386 33.8322 28.7352 33.8749 28.6275 33.8749ZM28.6623 29.7589L28.2239 29.9821V31.4553H25.8034V25.6965C26.5631 25.5002 27.2253 25.0336 27.6657 24.3841C28.106 23.7346 28.2944 22.9469 28.1955 22.1684C28.0966 21.39 27.7172 20.6743 27.1284 20.1556C26.5396 19.6368 25.7818 19.3507 24.9971 19.3507C24.2124 19.3507 23.4546 19.6368 22.8658 20.1556C22.277 20.6743 21.8976 21.39 21.7987 22.1684C21.6998 22.9469 21.8882 23.7346 22.3286 24.3841C22.769 25.0336 23.4311 25.5002 24.1909 25.6965V31.4553H21.773V29.9821L21.3346 29.7589C19.7221 28.9363 18.4334 27.5949 17.6761 25.9506C16.9188 24.3064 16.737 22.4551 17.16 20.695C17.5831 18.9348 18.5862 17.3683 20.008 16.2478C21.4298 15.1272 23.1873 14.5179 24.9976 14.5179C26.8078 14.5179 28.5654 15.1272 29.9871 16.2478C31.4089 17.3683 32.4121 18.9348 32.8351 20.695C33.2581 22.4551 33.0764 24.3064 32.3191 25.9506C31.5618 27.5949 30.2731 28.9363 28.6605 29.7589H28.6623ZM25.0016 24.1964C24.6827 24.1962 24.371 24.1014 24.106 23.924C23.841 23.7466 23.6346 23.4947 23.5129 23.1999C23.3912 22.9051 23.3596 22.5809 23.4223 22.2682C23.4849 21.9556 23.6389 21.6685 23.8648 21.4434C24.0907 21.2183 24.3783 21.0652 24.6911 21.0036C25.004 20.942 25.3282 20.9745 25.6225 21.0972C25.9169 21.2199 26.1682 21.4272 26.3447 21.6928C26.5212 21.9584 26.615 22.2704 26.6141 22.5893C26.6125 23.0163 26.4416 23.4252 26.139 23.7264C25.8364 24.0277 25.4268 24.1966 24.9998 24.1964H25.0016ZM49.4087 30C48.8003 27.3113 47.8544 24.7104 46.5936 22.259C48.473 15.8215 47.6391 9.85711 43.8918 6.10711C40.5534 2.77675 35.4391 1.65184 29.4802 2.95541C28.9004 3.08041 28.32 3.23209 27.7391 3.41067C25.2895 2.14989 22.6912 1.20207 20.0052 0.589315C13.4186 -0.848185 7.76142 0.392909 4.0757 4.07148C0.389988 7.75005 -0.84572 13.4197 0.593565 20.009C1.20213 22.6975 2.14768 25.2983 3.40783 27.75C1.49355 34.2678 2.40337 40.1875 6.11052 43.8929C7.40676 45.1298 8.93834 46.0935 10.6143 46.727C12.2903 47.3604 14.0765 47.6507 15.8668 47.5804C17.4322 47.5694 18.9921 47.3927 20.5203 47.0535C21.1007 46.9285 21.6811 46.7678 22.2614 46.5982C24.71 47.8599 27.3091 48.805 29.9962 49.4107C31.6873 49.7917 33.4146 49.9893 35.148 50C39.5168 50 43.2436 48.616 45.9257 45.9285C49.6114 42.2499 50.8471 36.5893 49.4069 30H49.4087ZM42.7516 7.24999C45.7712 10.2679 46.6266 14.9732 45.4739 20.2054C41.6406 13.7531 36.253 8.36298 29.8025 4.52674C34.9784 3.38388 39.6998 4.19642 42.7498 7.24999H42.7516ZM2.16944 19.6607C0.849801 13.6339 1.93106 8.49997 5.21499 5.21425C7.58642 2.83925 10.9194 1.61612 14.8578 1.61612C16.473 1.62846 18.0822 1.81405 19.6578 2.16969C21.6856 2.61996 23.6607 3.28127 25.5507 4.14287C20.7147 6.06386 16.3336 8.97423 12.6882 12.6875C11.2964 14.0792 10.0087 15.5713 8.83552 17.1517C8.46305 17.0169 8.07088 16.9445 7.67482 16.9375C6.94972 16.9361 6.24091 17.1524 5.64011 17.5584C5.03931 17.9643 4.57415 18.5413 4.30486 19.2145C4.03556 19.8878 3.9745 20.6263 4.1296 21.3346C4.2847 22.0429 4.6488 22.6884 5.1748 23.1875C4.79444 23.9821 4.44714 24.7768 4.14625 25.5625C3.28603 23.6683 2.62301 21.6907 2.16767 19.6607H2.16944ZM9.68641 20.5715C9.68588 20.9699 9.56724 21.3592 9.34549 21.6903C9.12374 22.0213 8.80883 22.2792 8.44056 22.4313C8.07229 22.5834 7.66718 22.6229 7.27645 22.5449C6.88572 22.4668 6.5269 22.2746 6.24534 21.9927C5.96378 21.7108 5.77212 21.3517 5.69458 20.9609C5.61704 20.5701 5.6571 20.165 5.8097 19.797C5.9623 19.4289 6.2206 19.1143 6.55193 18.893C6.88327 18.6717 7.2728 18.5536 7.67125 18.5536C8.20528 18.556 8.71668 18.7695 9.09388 19.1475C9.47109 19.5255 9.68344 20.0374 9.68462 20.5715H9.68641ZM7.2516 42.7589C4.27303 39.7768 3.37034 35.1072 4.53731 29.8215C8.37191 36.2662 13.7573 41.6497 20.2034 45.4821C15.0221 46.6249 10.3007 45.8036 7.2498 42.7589H7.2516ZM12.5248 37.4821C9.58571 34.5686 7.09572 31.2346 5.13641 27.5893C5.53279 26.3655 6.01004 25.1694 6.56498 24.0089C6.9211 24.1262 7.29281 24.1894 7.66768 24.1964C8.38688 24.1968 9.08994 23.9833 9.68745 23.583C10.285 23.1827 10.7499 22.6138 11.0231 21.9485C11.2963 21.2832 11.3654 20.5516 11.2217 19.8469C11.0779 19.1422 10.7278 18.4962 10.2159 17.9911C11.3213 16.5225 12.5272 15.1323 13.8248 13.8303C17.6587 9.891 22.3678 6.91153 27.5694 5.13393C34.8882 9.10299 40.8976 15.1109 44.8685 22.4286C43.8567 25.4664 42.3992 28.3371 40.5436 30.9465C40.0891 30.7495 39.5996 30.6462 39.1043 30.6428C38.449 30.6423 37.8059 30.8196 37.2433 31.1555C36.6807 31.4914 36.2197 31.9735 35.9093 32.5506C35.5989 33.1276 35.4507 33.778 35.4805 34.4325C35.5102 35.0871 35.7169 35.7214 36.0784 36.2679C32.2618 40.162 27.5873 43.1096 22.4284 44.875C18.7781 42.9158 15.4397 40.4242 12.523 37.4821H12.5248ZM41.123 34.2768C41.1225 34.6753 41.0039 35.0646 40.7821 35.3956C40.5604 35.7266 40.2454 35.9845 39.8772 36.1366C39.5089 36.2887 39.1038 36.3283 38.7131 36.2502C38.3223 36.1721 37.9635 35.9801 37.682 35.6982C37.4004 35.4162 37.2087 35.0571 37.1312 34.6662C37.0537 34.2754 37.0937 33.8704 37.2463 33.5023C37.3989 33.1342 37.6572 32.8196 37.9886 32.5983C38.3199 32.377 38.7094 32.2589 39.1078 32.2589C39.3726 32.259 39.6347 32.3113 39.8792 32.4128C40.1237 32.5143 40.3458 32.663 40.5328 32.8504C40.7198 33.0378 40.8681 33.2603 40.969 33.505C41.07 33.7498 41.1217 34.0121 41.1212 34.2768H41.123ZM44.7882 44.7947C41.5052 48.0804 36.3766 49.1607 30.3418 47.8392C28.3152 47.3848 26.3406 46.7236 24.4489 45.8661C29.2592 43.9549 33.619 41.0631 37.2507 37.375C37.8083 37.7178 38.4497 37.9001 39.1043 37.9017C39.7995 37.9047 40.4809 37.7069 41.0665 37.332C41.6521 36.9572 42.117 36.4213 42.4055 35.7887C42.694 35.1561 42.7938 34.4538 42.6928 33.7658C42.5919 33.0779 42.2945 32.4338 41.8364 31.9107C43.4761 29.5964 44.8255 27.0896 45.8543 24.4464C46.7148 26.3402 47.377 28.318 47.8302 30.3482C49.1516 36.375 48.0695 41.509 44.7864 44.7947H44.7882Z" fill="#2B274B"/>
</svg>
