<svg width="50" height="50" viewBox="0 0 50 50" fill="none" xmlns="http://www.w3.org/2000/svg">
<path fill-rule="evenodd" clip-rule="evenodd" d="M46.011 12.2327C46.2224 12.2327 46.4252 12.1488 46.5747 11.9992C46.7243 11.8497 46.8083 11.6469 46.8083 11.4354V7.9809H49.2019C49.3068 7.98102 49.4107 7.96044 49.5077 7.92031C49.6046 7.88018 49.6927 7.82132 49.7669 7.74708C49.841 7.67284 49.8998 7.58468 49.9398 7.48768C49.9798 7.39068 50.0003 7.28677 50.0001 7.18184V0.798174C50.0001 0.693398 49.9794 0.589676 49.9393 0.492887C49.8992 0.396098 49.8403 0.308144 49.7662 0.234098C49.6921 0.160053 49.6041 0.101326 49.5073 0.0613131C49.4104 0.0212999 49.3067 0.000768832 49.2019 0.000888302H42.8182C42.7135 0.000768832 42.6097 0.0212999 42.5129 0.0613131C42.416 0.101326 42.328 0.160053 42.2539 0.234098C42.1798 0.308144 42.121 0.396098 42.0808 0.492887C42.0407 0.589676 42.0201 0.693398 42.0201 0.798174V3.19181H7.97824V0.798174C7.97848 0.693441 7.95807 0.589716 7.91815 0.492887C7.87824 0.396058 7.81962 0.308018 7.74564 0.233876C7.67167 0.159734 7.58379 0.100948 7.48705 0.0608137C7.39031 0.0206791 7.28661 2.4545e-07 7.18187 5.18414e-07H0.79915C0.694374 -0.000118952 0.590614 0.0204121 0.49378 0.0604253C0.396945 0.100439 0.308927 0.159165 0.234797 0.23321C0.160667 0.307256 0.101858 0.395155 0.0617343 0.491944C0.0216107 0.588733 0.000976494 0.69251 0.000976563 0.797286V7.18184C0.000976494 7.28662 0.0216107 7.39034 0.0617343 7.48713C0.101858 7.58392 0.160667 7.67187 0.234797 7.74592C0.308927 7.81996 0.396945 7.87863 0.49378 7.91865C0.590614 7.95866 0.694374 7.97919 0.79915 7.97907H3.19187V42.0218H0.79915C0.587459 42.0218 0.384429 42.1059 0.234741 42.2556C0.0850531 42.4053 0.000976563 42.6083 0.000976563 42.82V49.2027C0.000976563 49.4144 0.0850531 49.6174 0.234741 49.7671C0.384429 49.9168 0.587459 50.0009 0.79915 50.0009H7.18187C7.28665 50.0009 7.3904 49.9803 7.48719 49.9401C7.58398 49.9 7.6719 49.8412 7.74595 49.7671C7.82 49.6929 7.87872 49.6049 7.91873 49.5081C7.95875 49.4113 7.97928 49.3075 7.97916 49.2027V46.8091H42.0219V49.2027C42.0219 49.4144 42.106 49.6174 42.2557 49.7671C42.4054 49.9168 42.6084 50.0009 42.8201 50.0009H49.2028C49.4145 50.0009 49.6175 49.9168 49.7672 49.7671C49.9169 49.6174 50.001 49.4144 50.001 49.2027V42.8182C50.001 42.6065 49.9169 42.4035 49.7672 42.2538C49.6175 42.1041 49.4145 42.02 49.2028 42.02H46.8091V14.6273C46.8128 14.5203 46.7948 14.4136 46.7563 14.3136C46.7179 14.2137 46.6597 14.1225 46.5853 14.0455C46.5108 13.9685 46.4217 13.9073 46.3231 13.8655C46.2245 13.8237 46.1185 13.8022 46.0114 13.8022C45.9043 13.8022 45.7984 13.8237 45.6998 13.8655C45.6012 13.9073 45.512 13.9685 45.4376 14.0455C45.3631 14.1225 45.305 14.2137 45.2665 14.3136C45.228 14.4136 45.2101 14.5203 45.2137 14.6273V42.02H42.8182C42.6066 42.02 42.4035 42.1041 42.2538 42.2538C42.1042 42.4035 42.0201 42.6065 42.0201 42.8182V45.2118H7.97824V42.8182C7.97836 42.7134 7.95783 42.6097 7.91782 42.5128C7.87781 42.416 7.81911 42.328 7.74506 42.2539C7.67102 42.1797 7.58306 42.1209 7.48627 42.0808C7.38948 42.0407 7.28573 42.02 7.18096 42.02H4.78733V7.9773H7.18187C7.28661 7.97742 7.39035 7.95684 7.48713 7.91682C7.58392 7.87679 7.67184 7.81809 7.74589 7.74403C7.81995 7.66997 7.87868 7.58203 7.91871 7.48524C7.95873 7.38846 7.97928 7.28474 7.97916 7.18001V4.78638H42.0219V7.18184C42.0219 7.28662 42.0425 7.39034 42.0827 7.48713C42.1228 7.58392 42.1816 7.67187 42.2557 7.74592C42.3299 7.81996 42.4178 7.87863 42.5147 7.91865C42.6115 7.95866 42.7153 7.97919 42.8201 7.97907H45.2137V11.4337C45.2134 11.5385 45.2339 11.6423 45.2739 11.7393C45.3138 11.8362 45.3725 11.9243 45.4466 11.9986C45.5206 12.0728 45.6086 12.1317 45.7054 12.1719C45.8023 12.212 45.9061 12.2327 46.011 12.2327ZM43.6173 43.6164H48.4046V48.4027H43.6173V43.6164ZM6.38278 48.4027H1.59552V43.6164H6.38278V48.4027ZM6.38278 6.38184H1.59552V1.59457H6.38278V6.38184ZM43.6173 1.59457H48.4046V6.38184H43.6173V1.59457ZM39.3637 11.4354C39.3634 11.2238 39.2793 11.0209 39.1296 10.8713C38.98 10.7217 38.7771 10.6375 38.5655 10.6373H11.4364C11.2248 10.6375 11.0219 10.7217 10.8723 10.8713C10.7226 11.0209 10.6385 11.2238 10.6382 11.4354V25C10.6382 25.1048 10.6589 25.2086 10.699 25.3055C10.7391 25.4023 10.7979 25.4903 10.872 25.5644C10.9461 25.6385 11.0341 25.6973 11.131 25.7374C11.2278 25.7775 11.3316 25.7982 11.4364 25.7982H38.5637C38.6685 25.7982 38.7723 25.7775 38.8691 25.7374C38.966 25.6973 39.054 25.6385 39.1281 25.5644C39.2022 25.4903 39.261 25.4023 39.3011 25.3055C39.3412 25.2086 39.3619 25.1048 39.3619 25V11.4364L39.3637 11.4354ZM12.2337 12.7273L23.2155 18.2182L12.2337 23.7091V12.7273ZM14.8164 12.2336H35.1801L24.9982 17.3246L14.8164 12.2336ZM24.9982 19.11L35.1801 24.2009H14.8182L24.9982 19.11ZM26.7819 18.2182L37.7637 12.7273V23.7091L26.7819 18.2182ZM23.4028 37.7636H11.4364C11.3294 37.76 11.2227 37.778 11.1228 37.8164C11.0229 37.8549 10.9317 37.9131 10.8547 37.9875C10.7777 38.0619 10.7165 38.1511 10.6747 38.2497C10.6329 38.3483 10.6113 38.4543 10.6113 38.5613C10.6113 38.6684 10.6329 38.7744 10.6747 38.873C10.7165 38.9716 10.7777 39.0608 10.8547 39.1352C10.9317 39.2096 11.0229 39.2678 11.1228 39.3063C11.2227 39.3448 11.3294 39.3627 11.4364 39.3591H23.4046C23.6095 39.3493 23.8027 39.2611 23.9442 39.1126C24.0858 38.9642 24.1647 38.7669 24.1647 38.5618C24.1647 38.3568 24.0858 38.1595 23.9442 38.011C23.8027 37.8626 23.6095 37.7743 23.4046 37.7646L23.4028 37.7636ZM38.5619 37.7636H26.5955C26.4885 37.76 26.3818 37.778 26.2819 37.8164C26.1819 37.8549 26.0908 37.9131 26.0138 37.9875C25.9368 38.0619 25.8756 38.1511 25.8338 38.2497C25.792 38.3483 25.7704 38.4543 25.7704 38.5613C25.7704 38.6684 25.792 38.7744 25.8338 38.873C25.8756 38.9716 25.9368 39.0608 26.0138 39.1352C26.0908 39.2096 26.1819 39.2678 26.2819 39.3063C26.3818 39.3448 26.4885 39.3627 26.5955 39.3591H38.5637C38.6716 39.3642 38.7794 39.3474 38.8806 39.3097C38.9819 39.272 39.0744 39.2141 39.1526 39.1395C39.2307 39.065 39.293 38.9754 39.3355 38.8761C39.378 38.7768 39.4 38.6699 39.4 38.5618C39.4 38.4538 39.378 38.3469 39.3355 38.2476C39.293 38.1483 39.2307 38.0587 39.1526 37.9841C39.0744 37.9096 38.9819 37.8517 38.8806 37.8139C38.7794 37.7762 38.6716 37.7594 38.5637 37.7646L38.5619 37.7636ZM23.4028 34.3727H11.4364C11.2247 34.3727 11.0217 34.4568 10.872 34.6065C10.7223 34.7562 10.6382 34.9592 10.6382 35.1709C10.6382 35.3826 10.7223 35.5856 10.872 35.7353C11.0217 35.885 11.2247 35.9691 11.4364 35.9691H23.4046C23.6115 35.9621 23.8076 35.875 23.9515 35.7262C24.0954 35.5773 24.1759 35.3784 24.1759 35.1713C24.1759 34.9643 24.0954 34.7654 23.9515 34.6166C23.8076 34.4678 23.6115 34.3806 23.4046 34.3736L23.4028 34.3727ZM38.5619 34.3727H26.5955C26.3838 34.3727 26.1808 34.4568 26.0311 34.6065C25.8814 34.7562 25.7973 34.9592 25.7973 35.1709C25.7973 35.3826 25.8814 35.5856 26.0311 35.7353C26.1808 35.885 26.3838 35.9691 26.5955 35.9691H38.5637C38.6707 35.9727 38.7774 35.9548 38.8773 35.9163C38.9773 35.8778 39.0684 35.8196 39.1454 35.7452C39.2224 35.6708 39.2836 35.5816 39.3255 35.483C39.3673 35.3844 39.3888 35.2784 39.3888 35.1713C39.3888 35.0643 39.3673 34.9583 39.3255 34.8597C39.2836 34.7611 39.2224 34.6719 39.1454 34.5975C39.0684 34.5231 38.9773 34.4649 38.8773 34.4264C38.7774 34.388 38.6707 34.37 38.5637 34.3736L38.5619 34.3727ZM23.4028 30.9818H11.4364C11.3294 30.9782 11.2227 30.9961 11.1228 31.0346C11.0229 31.0731 10.9317 31.1313 10.8547 31.2057C10.7777 31.2802 10.7165 31.3693 10.6747 31.4679C10.6329 31.5665 10.6113 31.6725 10.6113 31.7796C10.6113 31.8867 10.6329 31.9926 10.6747 32.0912C10.7165 32.1898 10.7777 32.279 10.8547 32.3534C10.9317 32.4278 11.0229 32.486 11.1228 32.5245C11.2227 32.5629 11.3294 32.5809 11.4364 32.5773H23.4046C23.6095 32.5675 23.8027 32.4792 23.9442 32.3308C24.0858 32.1823 24.1647 31.9851 24.1647 31.78C24.1647 31.5749 24.0858 31.3777 23.9442 31.2292C23.8027 31.0808 23.6095 30.9925 23.4046 30.9827L23.4028 30.9818ZM38.5619 30.9818H26.5955C26.4885 30.9782 26.3818 30.9961 26.2819 31.0346C26.1819 31.0731 26.0908 31.1313 26.0138 31.2057C25.9368 31.2802 25.8756 31.3693 25.8338 31.4679C25.792 31.5665 25.7704 31.6725 25.7704 31.7796C25.7704 31.8867 25.792 31.9926 25.8338 32.0912C25.8756 32.1898 25.9368 32.279 26.0138 32.3534C26.0908 32.4278 26.1819 32.486 26.2819 32.5245C26.3818 32.5629 26.4885 32.5809 26.5955 32.5773H38.5637C38.6716 32.5824 38.7794 32.5657 38.8806 32.5279C38.9819 32.4902 39.0744 32.4323 39.1526 32.3577C39.2307 32.2832 39.293 32.1935 39.3355 32.0942C39.378 31.9949 39.4 31.888 39.4 31.78C39.4 31.672 39.378 31.5651 39.3355 31.4658C39.293 31.3665 39.2307 31.2768 39.1526 31.2023C39.0744 31.1277 38.9819 31.0698 38.8806 31.0321C38.7794 30.9944 38.6716 30.9776 38.5637 30.9827L38.5619 30.9818ZM38.5619 27.5909H11.4364C11.3294 27.5873 11.2227 27.6052 11.1228 27.6437C11.0229 27.6822 10.9317 27.7403 10.8547 27.8148C10.7777 27.8892 10.7165 27.9784 10.6747 28.077C10.6329 28.1755 10.6113 28.2815 10.6113 28.3886C10.6113 28.4957 10.6329 28.6017 10.6747 28.7003C10.7165 28.7989 10.7777 28.888 10.8547 28.9625C10.9317 29.0369 11.0229 29.0951 11.1228 29.1336C11.2227 29.172 11.3294 29.19 11.4364 29.1863H38.5637C38.6716 29.1915 38.7794 29.1747 38.8806 29.137C38.9819 29.0992 39.0744 29.0413 39.1526 28.9668C39.2307 28.8922 39.293 28.8026 39.3355 28.7033C39.378 28.604 39.4 28.4971 39.4 28.3891C39.4 28.2811 39.378 28.1741 39.3355 28.0748C39.293 27.9755 39.2307 27.8859 39.1526 27.8114C39.0744 27.7369 38.9819 27.679 38.8806 27.6412C38.7794 27.6035 38.6716 27.5867 38.5637 27.5918L38.5619 27.5909Z" fill="#2B274B"/>
</svg>
