<svg width="44" height="43" viewBox="0 0 44 43" fill="none" xmlns="http://www.w3.org/2000/svg">
<path fill-rule="evenodd" clip-rule="evenodd" d="M42.8205 30.5157H41.5758C41.5367 30.4163 41.4963 30.3169 41.4523 30.2176L42.333 29.3376C42.3989 29.272 42.4513 29.1941 42.487 29.1082C42.5227 29.0223 42.5411 28.9303 42.5411 28.8373C42.5411 28.7443 42.5227 28.6522 42.487 28.5663C42.4513 28.4805 42.3989 28.4026 42.333 28.337L39.3226 25.328C39.2531 25.2582 39.1698 25.2038 39.078 25.1684C38.9862 25.1329 38.8879 25.1172 38.7896 25.1222C39.3607 24.824 39.8397 24.3757 40.1748 23.8255C40.51 23.2752 40.6886 22.6439 40.6915 21.9997V3.54833C40.6915 2.60726 40.3177 1.70473 39.6522 1.03929C38.9868 0.373849 38.0843 0 37.1432 0H4.49853C3.55745 0 2.65493 0.373849 1.98949 1.03929C1.32404 1.70473 0.950195 2.60726 0.950195 3.54833V21.9997C0.950195 22.9407 1.32404 23.8433 1.98949 24.5087C2.65493 25.1742 3.55745 25.548 4.49853 25.548H13.7597L11.0785 30.5157H9.82103C9.16228 30.5157 8.53052 30.7774 8.06471 31.2432C7.5989 31.709 7.3372 32.3407 7.3372 32.9995C7.3372 33.6583 7.5989 34.29 8.06471 34.7558C8.53052 35.2216 9.16228 35.4833 9.82103 35.4833H25.0789C25.0789 35.6715 25.1536 35.8521 25.2867 35.9852C25.4198 36.1183 25.6003 36.193 25.7885 36.193H27.0333C27.0723 36.2924 27.1128 36.3917 27.1568 36.4911L26.2761 37.3711C26.2101 37.4366 26.1578 37.5146 26.1221 37.6005C26.0863 37.6863 26.068 37.7784 26.068 37.8714C26.068 37.9644 26.0863 38.0565 26.1221 38.1423C26.1578 38.2282 26.2101 38.3061 26.2761 38.3716L29.2865 41.3807C29.4196 41.5137 29.6 41.5884 29.7882 41.5884C29.9764 41.5884 30.1569 41.5137 30.29 41.3807L31.1706 40.5006L31.4659 40.6284V41.8703C31.4659 42.0585 31.5406 42.2391 31.6737 42.3722C31.8068 42.5053 31.9873 42.58 32.1755 42.58H36.4335C36.6217 42.58 36.8022 42.5053 36.9353 42.3722C37.0684 42.2391 37.1432 42.0585 37.1432 41.8703V40.6284L37.4384 40.5006L38.3191 41.3807C38.4522 41.5137 38.6327 41.5884 38.8209 41.5884C39.009 41.5884 39.1895 41.5137 39.3226 41.3807L42.333 38.3716C42.3989 38.3061 42.4513 38.2282 42.487 38.1423C42.5227 38.0565 42.5411 37.9644 42.5411 37.8714C42.5411 37.7784 42.5227 37.6863 42.487 37.6005C42.4513 37.5146 42.3989 37.4366 42.333 37.3711L41.4523 36.4911C41.4963 36.3917 41.5367 36.2924 41.5758 36.193H42.8205C43.0087 36.193 43.1892 36.1183 43.3223 35.9852C43.4554 35.8521 43.5302 35.6715 43.5302 35.4833V31.2253C43.5302 31.0371 43.4554 30.8566 43.3223 30.7235C43.1892 30.5904 43.0087 30.5157 42.8205 30.5157ZM2.36953 3.54833C2.37065 2.98403 2.59532 2.44312 2.99434 2.0441C3.39336 1.64508 3.93423 1.42046 4.49853 1.41933H37.1432C37.7075 1.42046 38.2484 1.64508 38.6474 2.0441C39.0464 2.44312 39.2711 2.98403 39.2722 3.54833V18.4513H2.36953V3.54833ZM4.49853 24.1287C3.93423 24.1275 3.39336 23.9029 2.99434 23.5039C2.59532 23.1049 2.37065 22.564 2.36953 21.9997V19.8707H39.2722V21.9997C39.2711 22.564 39.0464 23.1049 38.6474 23.5039C38.2484 23.9029 37.7075 24.1275 37.1432 24.1287H4.49853ZM38.3099 25.3351L37.4384 26.208C37.3398 26.1584 37.2418 26.1228 37.1432 26.0802V25.548C37.5413 25.5432 37.9357 25.4712 38.3099 25.3351ZM31.4659 25.548V26.0802C31.3672 26.1228 31.2693 26.1584 31.1706 26.208L30.5121 25.548H31.4659ZM29.0636 25.548L28.4519 26.1583L28.0353 25.548H29.0636ZM25.0789 34.064H9.82103C9.53871 34.064 9.26794 33.9519 9.06831 33.7522C8.86867 33.5526 8.75653 33.2818 8.75653 32.9995C8.75653 32.7172 8.86867 32.4464 9.06831 32.2468C9.26794 32.0471 9.53871 31.935 9.82103 31.935H25.0789V34.064ZM12.6909 30.5157L15.3721 25.548H26.3179L27.4307 27.1803L26.2761 28.337C26.2101 28.4026 26.1578 28.4805 26.1221 28.5663C26.0863 28.6522 26.068 28.7443 26.068 28.8373C26.068 28.9303 26.0863 29.0223 26.1221 29.1082C26.1578 29.1941 26.2101 29.272 26.2761 29.3376L27.1568 30.2176C27.1128 30.3169 27.0723 30.4163 27.0333 30.5157H12.6909ZM42.1109 34.7737H41.0755C40.9244 34.7737 40.7773 34.8218 40.6556 34.9111C40.5338 35.0005 40.4437 35.1263 40.3984 35.2704C40.2836 35.6274 40.1388 35.974 39.9655 36.3066C39.8957 36.4405 39.8704 36.5933 39.8934 36.7427C39.9163 36.892 39.9864 37.0301 40.0933 37.1368L40.8285 37.8678L38.8215 39.8761L38.0863 39.1381C37.9785 39.0329 37.8405 38.964 37.6916 38.9411C37.5428 38.9182 37.3905 38.9424 37.256 39.0104C36.9255 39.1874 36.5788 39.3324 36.2206 39.4432C36.0766 39.4899 35.951 39.5809 35.8617 39.7033C35.7725 39.8257 35.7243 39.9732 35.7239 40.1246V41.1607H32.8852V40.1246C32.8856 39.9738 32.8375 39.8269 32.7481 39.7055C32.6587 39.5841 32.5326 39.4946 32.3884 39.4503C32.0325 39.3333 31.6863 39.1886 31.353 39.0175C31.2194 38.9461 31.0663 38.92 30.9166 38.943C30.7669 38.9661 30.6287 39.037 30.5227 39.1452L29.7875 39.8761L27.7806 37.8678L28.5158 37.1368C28.6227 37.0301 28.6927 36.892 28.7157 36.7427C28.7387 36.5933 28.7134 36.4405 28.6435 36.3066C28.4702 35.974 28.3254 35.6274 28.2106 35.2704C28.1653 35.1262 28.0751 35.0003 27.9532 34.911C27.8313 34.8216 27.684 34.7735 27.5329 34.7737H26.4982V31.935H27.5336C27.6846 31.935 27.8317 31.8869 27.9535 31.7975C28.0752 31.7082 28.1653 31.5823 28.2106 31.4383C28.3241 31.0808 28.469 30.734 28.6435 30.4021C28.7134 30.2681 28.7387 30.1153 28.7157 29.966C28.6927 29.8167 28.6227 29.6786 28.5158 29.5718L27.7806 28.8338L29.7875 26.8325L30.5227 27.5634C30.6295 27.6703 30.7676 27.7404 30.9169 27.7634C31.0663 27.7863 31.2191 27.7611 31.353 27.6912C31.6863 27.5201 32.0325 27.3753 32.3884 27.2583C32.532 27.2132 32.6575 27.1235 32.7468 27.0023C32.8361 26.8811 32.8846 26.7346 32.8852 26.5841V25.548H35.7239V26.5841C35.7245 26.7346 35.7729 26.8811 35.8622 27.0023C35.9515 27.1235 36.077 27.2132 36.2206 27.2583C36.5777 27.3723 36.9241 27.5171 37.256 27.6912C37.39 27.7611 37.5428 27.7863 37.6921 27.7634C37.8415 27.7404 37.9796 27.6703 38.0863 27.5634L38.8215 26.8325L40.8285 28.8338L40.0933 29.5718C39.9864 29.6786 39.9163 29.8167 39.8934 29.966C39.8704 30.1153 39.8957 30.2681 39.9655 30.4021C40.1401 30.734 40.2849 31.0808 40.3984 31.4383C40.4438 31.5825 40.534 31.7083 40.6559 31.7977C40.7778 31.887 40.925 31.9352 41.0762 31.935H42.1109V34.7737ZM34.3045 29.0963C33.4624 29.0963 32.6391 29.3461 31.9389 29.814C31.2387 30.2818 30.6929 30.9468 30.3707 31.7248C30.0484 32.5029 29.9641 33.3591 30.1283 34.185C30.2926 35.011 30.6982 35.7697 31.2937 36.3652C31.8892 36.9607 32.6479 37.3663 33.4738 37.5306C34.2998 37.6949 35.1559 37.6105 35.934 37.2883C36.712 36.966 37.3771 36.4201 37.8449 35.7199C38.3128 35.0197 38.5625 34.1965 38.5625 33.3543C38.5616 32.2253 38.1127 31.1428 37.3143 30.3445C36.516 29.5462 35.4335 29.0973 34.3045 29.0963ZM34.3045 36.193C33.7431 36.193 33.1943 36.0266 32.7274 35.7146C32.2606 35.4027 31.8968 34.9594 31.682 34.4407C31.4671 33.922 31.4109 33.3512 31.5204 32.8005C31.6299 32.2499 31.9003 31.7441 32.2973 31.3471C32.6943 30.9501 33.2001 30.6798 33.7508 30.5702C34.3014 30.4607 34.8722 30.5169 35.3909 30.7317C35.9096 30.9466 36.3529 31.3104 36.6648 31.7772C36.9767 32.2441 37.1432 32.7929 37.1432 33.3543C37.1432 34.1072 36.8441 34.8292 36.3118 35.3615C35.7794 35.8939 35.0574 36.193 34.3045 36.193ZM14.9356 5.4715L13.9321 4.46383L8.96448 9.4315C8.83118 9.56531 8.75631 9.74646 8.75631 9.93533C8.75631 10.1242 8.83118 10.3054 8.96448 10.4392L13.9321 15.4068L14.9356 14.3992L10.4697 9.93533L14.9356 5.4715ZM30.5482 9.4315L25.5806 4.46383L24.5771 5.4715L29.0431 9.93533L24.5771 14.3992L25.5806 15.4068L30.5482 10.4392C30.6815 10.3054 30.7564 10.1242 30.7564 9.93533C30.7564 9.74646 30.6815 9.56531 30.5482 9.4315ZM15.9291 15.2934L22.3161 2.52645L23.5857 3.15798L17.1987 15.932L15.9291 15.2934ZM28.6272 14.1933H30.0465V15.6127H28.6272V14.1933ZM31.4659 14.1933H32.8852V15.6127H31.4659V14.1933ZM34.3045 14.1933H35.7239V15.6127H34.3045V14.1933Z" fill="#2B274B"/>
</svg>
