<svg width="15" height="20" viewBox="0 0 15 20" fill="none" xmlns="http://www.w3.org/2000/svg">
<path d="M3.0166 9.00586C4.23817 11.423 6.07053 13.2554 8.51367 14.5029L10.346 12.6706C10.58 12.4107 10.8659 12.3457 11.2037 12.4756C12.1394 12.7875 13.1271 12.9435 14.1667 12.9435C14.3746 12.9435 14.5631 13.0215 14.732 13.1774C14.9009 13.3333 14.9854 13.5283 14.9854 13.7622V16.6862C14.9854 16.8941 14.9009 17.0825 14.732 17.2515C14.5631 17.4204 14.3746 17.5049 14.1667 17.5049C11.5936 17.5049 9.22193 16.8746 7.05169 15.614C4.88144 14.3535 3.16605 12.6381 1.90549 10.4678C0.644928 8.29761 0.0146484 5.92594 0.0146484 3.35284C0.0146484 3.14491 0.0991189 2.95647 0.26806 2.78753C0.437001 2.61859 0.625435 2.53412 0.833362 2.53412H3.75734C3.99126 2.53412 4.18619 2.61859 4.34213 2.78753C4.49808 2.95647 4.57605 3.14491 4.57605 3.35284C4.57605 4.39247 4.732 5.38013 5.04389 6.3158C5.14785 6.65368 5.08287 6.93958 4.84896 7.1735L3.0166 9.00586Z" fill="#FA373D"/>
</svg>
