<svg width="33" height="49" viewBox="0 0 33 49" fill="none" xmlns="http://www.w3.org/2000/svg">
<path fill-rule="evenodd" clip-rule="evenodd" d="M31.3964 16.2717H30.3077V13.706C30.3218 12.3273 29.792 10.9988 28.833 10.0082C27.874 9.01761 26.5632 8.44489 25.1848 8.41431V2.59938C25.192 1.91799 24.9286 1.26157 24.4523 0.774219C23.9761 0.286871 23.3259 0.00845737 22.6445 0H8.57555C7.89418 0.00845737 7.24408 0.286871 6.76781 0.774219C6.29154 1.26157 6.028 1.91799 6.03521 2.59938V8.41431C4.65683 8.44489 3.34613 9.01761 2.38716 10.0082C1.42819 10.9988 0.898276 12.3273 0.912384 13.706V35.244C0.901126 36.6218 1.43198 37.9488 2.39035 38.9387C3.34873 39.9287 4.65776 40.5023 6.03521 40.5357V46.3506C6.028 47.032 6.29154 47.6884 6.76781 48.1758C7.24408 48.6631 7.89418 48.9415 8.57555 48.95H22.6445C23.3259 48.9415 23.9761 48.6631 24.4523 48.1758C24.9286 47.6884 25.192 47.032 25.1848 46.3506V40.5357C26.5623 40.5023 27.8714 39.9287 28.8298 38.9387C29.7882 37.9488 30.3189 36.6218 30.3077 35.244V23.707H31.3964C31.4952 23.7063 31.5928 23.6861 31.6837 23.6475C31.7747 23.6089 31.857 23.5527 31.9261 23.4821C31.9951 23.4114 32.0495 23.3278 32.0861 23.236C32.1226 23.1443 32.1407 23.0461 32.1391 22.9474V17.0313C32.1407 16.9325 32.1226 16.8344 32.0861 16.7426C32.0495 16.6508 31.9951 16.5672 31.9261 16.4966C31.857 16.426 31.7747 16.3697 31.6837 16.3311C31.5928 16.2925 31.4952 16.2723 31.3964 16.2717ZM7.5206 2.59938C7.51881 2.45914 7.54476 2.31998 7.59683 2.18976C7.64891 2.05954 7.72612 1.94085 7.8241 1.84051C7.92209 1.74017 8.03894 1.66014 8.16789 1.605C8.29684 1.54985 8.43532 1.52072 8.57555 1.51918H22.6445C22.7847 1.52072 22.9233 1.54985 23.0523 1.605C23.1812 1.66014 23.298 1.74017 23.3959 1.84051C23.4939 1.94085 23.5712 2.05954 23.6233 2.18976C23.6754 2.31998 23.7012 2.45914 23.6995 2.59938V8.41431H7.5206V2.59938ZM22.6445 47.4308H8.57555C8.29275 47.4264 8.02326 47.3104 7.82565 47.1081C7.62804 46.9057 7.51834 46.6334 7.5206 46.3506V40.5357H23.6995V46.3506C23.7017 46.6334 23.5921 46.9057 23.3945 47.1081C23.1969 47.3104 22.9273 47.4264 22.6445 47.4308ZM28.8223 35.244C28.8297 36.2337 28.4451 37.186 27.7524 37.8929C27.0597 38.5999 26.1153 39.0038 25.1257 39.0165H6.09435C5.10471 39.0038 4.16035 38.5999 3.46767 37.8929C2.77499 37.186 2.39033 36.2337 2.39777 35.244V13.706C2.38899 12.7159 2.77316 11.7627 3.46612 11.0555C4.15909 10.3483 5.10429 9.94485 6.09435 9.93349H25.1257C26.1158 9.94485 27.061 10.3483 27.7539 11.0555C28.4469 11.7627 28.8311 12.7159 28.8223 13.706V35.244ZM30.6537 22.1879H30.3077V17.7908H30.6537V22.1879ZM23.0074 21.7237C22.6526 21.7233 22.3013 21.795 21.9749 21.9342C21.6486 22.0735 21.3538 22.2774 21.1085 22.5338C20.7885 22.8534 20.5534 23.2481 20.4249 23.6817C20.3084 22.9112 20.0104 22.1793 19.5556 21.5465C19.9479 21.7644 20.3896 21.8777 20.8384 21.8756C21.1937 21.8756 21.5454 21.8047 21.873 21.667C22.2005 21.5293 22.4972 21.3276 22.7458 21.0738C23.2494 20.5514 23.5308 19.8541 23.5308 19.1285C23.5308 18.4029 23.2494 17.7055 22.7458 17.1831C22.4979 16.9284 22.2013 16.7261 21.8736 16.5884C21.5459 16.4506 21.1939 16.3802 20.8384 16.3814C20.4841 16.3795 20.133 16.4495 19.8066 16.5873C19.4802 16.7252 19.1852 16.9279 18.9395 17.1831C18.5261 17.6064 18.2583 18.1504 18.1748 18.7361C18.0914 19.3218 18.1967 19.9189 18.4754 20.4408C17.8597 19.9788 17.1416 19.672 16.3822 19.5463C17.0006 19.3609 17.5316 18.9592 17.8782 18.4147C18.2249 17.8701 18.3641 17.2191 18.2704 16.5804C18.1768 15.9418 17.8564 15.358 17.368 14.936C16.8795 14.514 16.2556 14.2818 15.6101 14.2818C14.9646 14.2818 14.3405 14.514 13.8521 14.936C13.3636 15.358 13.0433 15.9418 12.9496 16.5804C12.8559 17.2191 12.9951 17.8701 13.3418 18.4147C13.6885 18.9592 14.2195 19.3609 14.8378 19.5463C14.0784 19.672 13.3605 19.9788 12.7448 20.4408C12.9601 20.0353 13.0731 19.5834 13.074 19.1243C13.0736 18.3984 12.7887 17.7015 12.2806 17.1831C12.0329 16.9293 11.7369 16.7276 11.41 16.5899C11.0832 16.4522 10.7321 16.3813 10.3774 16.3813C10.0228 16.3813 9.67167 16.4522 9.34483 16.5899C9.01799 16.7276 8.722 16.9293 8.47428 17.1831C7.97065 17.7055 7.68925 18.4029 7.68925 19.1285C7.68925 19.8541 7.97065 20.5514 8.47428 21.0738C8.72286 21.3276 9.01967 21.5293 9.3472 21.667C9.67472 21.8047 10.0264 21.8756 10.3817 21.8756C10.8304 21.8777 11.2722 21.7644 11.6645 21.5465C11.209 22.1829 10.9084 22.9169 10.7867 23.6901C10.629 23.1275 10.2926 22.6315 9.82831 22.2768C9.36401 21.9221 8.79698 21.728 8.21271 21.7237C7.49481 21.7414 6.81226 22.0392 6.3108 22.5532C5.80934 23.0672 5.52865 23.7569 5.52865 24.475C5.52865 25.1931 5.80934 25.8828 6.3108 26.3968C6.81226 26.9108 7.49481 27.2086 8.21271 27.2263C8.79698 27.222 9.36401 27.0279 9.82831 26.6732C10.2926 26.3185 10.629 25.8225 10.7867 25.2599C10.9084 26.0331 11.209 26.7671 11.6645 27.4035C11.1556 27.1175 10.5661 27.0088 9.98862 27.0944C9.41115 27.1799 8.87842 27.4549 8.47428 27.8762C7.96713 28.3946 7.68512 29.0921 7.68945 29.8173C7.68644 30.5447 7.96809 31.2445 8.47428 31.7669C8.722 32.0207 9.01799 32.2224 9.34483 32.3601C9.67167 32.4978 10.0228 32.5687 10.3774 32.5687C10.7321 32.5687 11.0832 32.4978 11.41 32.3601C11.7369 32.2224 12.0329 32.0207 12.2806 31.7669C12.6939 31.3436 12.9618 30.7996 13.0452 30.2139C13.1287 29.6282 13.0235 29.0311 12.7448 28.5092C13.3605 28.9712 14.0784 29.278 14.8378 29.4037C14.2787 29.5798 13.7909 29.9307 13.4461 30.4047C13.1012 30.8787 12.9175 31.4508 12.922 32.0369C12.9177 32.7621 13.1998 33.4597 13.7069 33.9781C13.9522 34.2345 14.247 34.4384 14.5734 34.5777C14.8997 34.7169 15.251 34.7886 15.6059 34.7882H15.6143C15.9692 34.7886 16.3203 34.7169 16.6467 34.5777C16.9731 34.4384 17.2679 34.2345 17.5132 33.9781C18.0204 33.4597 18.3024 32.7621 18.2981 32.0369C18.3011 31.3095 18.0194 30.6098 17.5132 30.0874C17.199 29.7671 16.8105 29.5293 16.3822 29.3953C17.1415 29.2742 17.8599 28.9701 18.4754 28.5092C18.1967 29.0311 18.0914 29.6282 18.1748 30.2139C18.2583 30.7996 18.5261 31.3436 18.9395 31.7669C19.1872 32.0207 19.4832 32.2224 19.81 32.3601C20.1369 32.4978 20.488 32.5687 20.8426 32.5687C21.1973 32.5687 21.5484 32.4978 21.8752 32.3601C22.2021 32.2224 22.498 32.0207 22.7458 31.7669C23.252 31.2445 23.5337 30.5447 23.5307 29.8173C23.535 29.0921 23.2529 28.3946 22.7458 27.8762C22.4988 27.6196 22.2026 27.4156 21.8748 27.2764C21.547 27.1372 21.1945 27.0655 20.8384 27.0659C20.3888 27.0657 19.9468 27.182 19.5556 27.4035C20.0111 26.7671 20.3117 26.0331 20.4333 25.2599C20.5911 25.8225 20.9274 26.3185 21.3917 26.6732C21.856 27.0279 22.4232 27.222 23.0074 27.2263C23.7288 27.2168 24.4169 26.922 24.9214 26.4064C25.4259 25.8908 25.7057 25.1963 25.6996 24.475C25.7033 23.7458 25.4181 23.0448 24.9064 22.5254C24.6595 22.2717 24.3641 22.0701 24.038 21.9324C23.7118 21.7947 23.3615 21.7237 23.0074 21.7237ZM19.986 18.255C20.0977 18.1426 20.2305 18.0534 20.3768 17.9926C20.523 17.9317 20.68 17.9004 20.8384 17.9004C20.9968 17.9004 21.1538 17.9317 21.3 17.9926C21.4463 18.0534 21.5791 18.1426 21.6908 18.255C21.9183 18.4871 22.0457 18.7993 22.0453 19.1243C22.0463 19.2854 22.0154 19.445 21.9546 19.5942C21.8937 19.7433 21.8041 19.879 21.6908 19.9935C21.5805 20.1084 21.4482 20.1998 21.3017 20.2623C21.1552 20.3247 20.9976 20.3569 20.8384 20.3569C20.6792 20.3569 20.5216 20.3247 20.3751 20.2623C20.2286 20.1998 20.0963 20.1084 19.986 19.9935C19.7628 19.7592 19.6388 19.4478 19.6399 19.1243C19.64 18.801 19.7639 18.4899 19.986 18.255ZM11.2341 19.9935C11.1238 20.1084 10.9914 20.1998 10.8449 20.2623C10.6985 20.3247 10.5409 20.3569 10.3817 20.3569C10.2224 20.3569 10.0648 20.3247 9.91836 20.2623C9.77188 20.1998 9.63951 20.1084 9.52924 19.9935C9.41592 19.879 9.32632 19.7433 9.2655 19.5942C9.20468 19.445 9.17389 19.2854 9.17484 19.1243C9.17448 18.7993 9.30171 18.4871 9.52924 18.255C9.64093 18.1426 9.77382 18.0534 9.92011 17.9926C10.0664 17.9317 10.2232 17.9004 10.3817 17.9004C10.5401 17.9004 10.697 17.9317 10.8433 17.9926C10.9896 18.0534 11.1224 18.1426 11.2341 18.255C11.4562 18.4899 11.58 18.801 11.5801 19.1243C11.5812 19.4478 11.4572 19.7592 11.2341 19.9935ZM8.21271 25.7072C7.96799 25.7122 7.72725 25.6442 7.52132 25.5119C7.31538 25.3796 7.15353 25.189 7.05638 24.9644C6.95922 24.7397 6.93116 24.4912 6.97581 24.2505C7.02046 24.0098 7.13576 23.788 7.30703 23.6131C7.4783 23.4382 7.69784 23.3183 7.93753 23.2687C8.17722 23.2191 8.42619 23.242 8.65282 23.3344C8.87945 23.4269 9.07342 23.5847 9.20997 23.7878C9.34652 23.991 9.41947 24.2302 9.41952 24.475C9.422 24.7982 9.29652 25.1092 9.07037 25.3401C8.84423 25.571 8.53587 25.7029 8.21271 25.7072ZM11.2341 30.6866C11.1238 30.8015 10.9914 30.8928 10.8449 30.9553C10.6985 31.0177 10.5409 31.0499 10.3817 31.0499C10.2224 31.0499 10.0648 31.0177 9.91836 30.9553C9.77188 30.8928 9.63951 30.8015 9.52924 30.6866C9.41592 30.5721 9.32632 30.4364 9.2655 30.2873C9.20468 30.1381 9.17389 29.9783 9.17484 29.8173C9.17448 29.4922 9.30171 29.1802 9.52924 28.9481C9.63993 28.8339 9.77245 28.7431 9.91887 28.6811C10.0653 28.6192 10.2227 28.5873 10.3817 28.5873C10.5406 28.5873 10.698 28.6192 10.8444 28.6811C10.9909 28.7431 11.1234 28.8339 11.2341 28.9481C11.4562 29.183 11.58 29.4939 11.5801 29.8173C11.5812 30.1408 11.4572 30.4523 11.2341 30.6866ZM14.4074 16.9131C14.4132 16.6764 14.4887 16.4467 14.6246 16.2527C14.7604 16.0588 14.9504 15.9093 15.1709 15.8229C15.3913 15.7365 15.6324 15.717 15.8638 15.7671C16.0952 15.8171 16.3067 15.9343 16.4718 16.1041C16.6368 16.2738 16.7482 16.4886 16.7918 16.7213C16.8353 16.954 16.8093 17.1944 16.7169 17.4124C16.6244 17.6303 16.4696 17.8161 16.272 17.9465C16.0744 18.0769 15.8426 18.146 15.6059 18.1453C15.284 18.1393 14.9776 18.0065 14.7531 17.7757C14.5287 17.545 14.4044 17.235 14.4074 16.9131ZM16.4583 31.1677C16.5716 31.2822 16.6612 31.4178 16.722 31.567C16.7828 31.7162 16.8136 31.8758 16.8127 32.0369C16.813 32.3619 16.6858 32.6741 16.4583 32.9062C16.3471 33.0192 16.2143 33.1089 16.0679 33.1697C15.9215 33.2306 15.7644 33.2616 15.6059 33.2607C15.4487 33.2607 15.293 33.2294 15.1481 33.1685C15.0032 33.1076 14.8719 33.0185 14.7619 32.9062C14.5344 32.6741 14.407 32.3619 14.4074 32.0369C14.4031 31.7146 14.5269 31.4039 14.7516 31.1728C14.9763 30.9418 15.2836 30.8094 15.6059 30.8047C15.7652 30.8035 15.9231 30.835 16.0698 30.8975C16.2164 30.9599 16.3487 31.0519 16.4583 31.1677ZM15.6059 27.9437C14.9169 27.9573 14.2394 27.7653 13.6598 27.3924C13.0803 27.0195 12.6251 26.4825 12.352 25.8497C12.0789 25.217 12.0004 24.5174 12.1266 23.8399C12.2527 23.1624 12.5777 22.5378 13.0602 22.0457C13.5426 21.5537 14.1607 21.2164 14.8355 21.077C15.5104 20.9376 16.2116 21.0023 16.8495 21.2629C17.4875 21.5235 18.0333 21.9683 18.4176 22.5403C18.8018 23.1124 19.007 23.7859 19.007 24.475C19.0139 25.3854 18.66 26.2615 18.0226 26.9116C17.3851 27.5617 16.5162 27.9328 15.6059 27.9437ZM19.986 28.9481C20.0963 28.8332 20.2286 28.7417 20.3751 28.6793C20.5216 28.6168 20.6792 28.5847 20.8384 28.5847C20.9976 28.5847 21.1552 28.6168 21.3017 28.6793C21.4482 28.7417 21.5805 28.8332 21.6908 28.9481C21.9183 29.1802 22.0457 29.4922 22.0453 29.8173C22.0463 29.9783 22.0154 30.1381 21.9546 30.2873C21.8937 30.4364 21.8041 30.5721 21.6908 30.6866C21.5801 30.8007 21.4476 30.8914 21.3012 30.9534C21.1548 31.0154 20.9974 31.0474 20.8384 31.0474C20.6794 31.0474 20.522 31.0154 20.3756 30.9534C20.2292 30.8914 20.0967 30.8007 19.986 30.6866C19.7628 30.4523 19.6388 30.1408 19.6399 29.8173C19.64 29.4939 19.7639 29.183 19.986 28.9481ZM23.0074 25.7072C22.7665 25.7016 22.5323 25.6256 22.334 25.4886C22.1356 25.3517 21.9817 25.1597 21.8911 24.9363C21.8005 24.713 21.7772 24.468 21.8241 24.2316C21.871 23.9951 21.986 23.7776 22.155 23.6057C22.2651 23.4906 22.3974 23.3991 22.5439 23.3367C22.6905 23.2743 22.8482 23.2424 23.0074 23.2428C23.1667 23.2424 23.3243 23.2743 23.4708 23.3367C23.6174 23.3991 23.7497 23.4906 23.8598 23.6057C24.0287 23.7776 24.1438 23.9951 24.1907 24.2316C24.2376 24.468 24.2143 24.713 24.1237 24.9363C24.0331 25.1597 23.8792 25.3517 23.6808 25.4886C23.4825 25.6256 23.2484 25.7016 23.0074 25.7072ZM25.1257 10.5158H6.09435C5.25859 10.5267 4.46124 10.8688 3.87739 11.4669C3.29354 12.065 2.97082 12.8702 2.98006 13.706V35.244C2.97128 36.0789 3.29443 36.883 3.87842 37.4796C4.46241 38.0763 5.2595 38.4166 6.09435 38.4258H25.1257C25.9606 38.4166 26.7576 38.0763 27.3416 37.4796C27.9256 36.883 28.2488 36.0789 28.24 35.244V13.706C28.2492 12.8702 27.9265 12.065 27.3427 11.4669C26.7588 10.8688 25.9615 10.5267 25.1257 10.5158ZM26.7546 35.244C26.7573 35.4603 26.7172 35.6749 26.6367 35.8756C26.5563 36.0764 26.4369 36.2592 26.2855 36.4136C26.1342 36.5681 25.9538 36.6912 25.7548 36.7758C25.5557 36.8604 25.342 36.9048 25.1257 36.9066H6.09435C5.87809 36.9048 5.66431 36.8604 5.46529 36.7758C5.26626 36.6912 5.08585 36.5681 4.93451 36.4136C4.78317 36.2592 4.6639 36.0764 4.58341 35.8756C4.50291 35.6749 4.46277 35.4603 4.46545 35.244V13.706C4.46277 13.4897 4.50291 13.2751 4.58341 13.0744C4.6639 12.8736 4.78317 12.6909 4.93451 12.5364C5.08585 12.3819 5.26626 12.2588 5.46529 12.1742C5.66431 12.0897 5.87809 12.0452 6.09435 12.0434H25.1257C25.342 12.0452 25.5557 12.0897 25.7548 12.1742C25.9538 12.2588 26.1342 12.3819 26.2855 12.5364C26.4369 12.6909 26.5563 12.8736 26.6367 13.0744C26.7172 13.2751 26.7573 13.4897 26.7546 13.706V35.244Z" fill="#2B274B"/>
</svg>
