<svg width="14" height="12" viewBox="0 0 14 12" fill="none" xmlns="http://www.w3.org/2000/svg">
<path d="M11.9932 0.682271C12.3675 0.682271 12.6846 0.812225 12.9445 1.07213C13.2044 1.33204 13.3343 1.64913 13.3343 2.0234V10.0078C13.3343 10.3821 13.2044 10.6992 12.9445 10.9591C12.6846 11.219 12.3675 11.3489 11.9932 11.3489H1.35773C0.983463 11.3489 0.666374 11.219 0.406465 10.9591C0.146556 10.6992 0.0166016 10.3821 0.0166016 10.0078V2.0234C0.0166016 1.64913 0.146556 1.33204 0.406465 1.07213C0.666374 0.812225 0.983463 0.682271 1.35773 0.682271H11.9932ZM11.9932 3.36453V2.0234L6.65988 5.36063L1.35773 2.0234V3.36453L6.65988 6.67058L11.9932 3.36453Z" fill="#F93340"/>
</svg>
