<svg width="30" height="20" viewBox="0 0 30 20" fill="none" xmlns="http://www.w3.org/2000/svg">
<path d="M12.0772 3H4.92462C4.24008 3 3.6875 3.55506 3.6875 4.23836V18.7629C3.6875 19.4456 4.24008 20 4.92462 20H12.0772C12.7605 20 13.3143 19.4456 13.3143 18.7629V4.23836C13.3143 3.55506 12.7605 3 12.0772 3ZM6.736 3.75206H10.2671C10.3563 3.75206 10.4288 3.88525 10.4288 4.05003C10.4288 4.21482 10.3563 4.34863 10.2671 4.34863H6.736C6.64618 4.34863 6.57494 4.21482 6.57494 4.05003C6.57494 3.88525 6.64618 3.75206 6.736 3.75206ZM8.50154 18.7777C8.06604 18.7777 7.7117 18.4234 7.7117 17.9873C7.7117 17.5512 8.06604 17.1981 8.50154 17.1981C8.93581 17.1981 9.29015 17.5512 9.29015 17.9873C9.29015 18.4234 8.93581 18.7777 8.50154 18.7777ZM12.3876 16.0712H4.61487V5.08953H12.3876V16.0712Z" fill="#FA373D"/>
<path d="M26.47 4.612H27.716V17.716H26.47V4.612Z" fill="#201D1D"/>
</svg>
