<svg width="25" height="20" viewBox="0 0 25 20" fill="none" xmlns="http://www.w3.org/2000/svg">
<path d="M21.47 4.612H22.716V17.716H21.47V4.612Z" fill="#201D1D"/>
<g clip-path="url(#clip0)">
<path d="M5.91376 9.78043C6.70789 9.78043 7.39554 9.49561 7.9574 8.93367C8.51926 8.37181 8.80408 7.68434 8.80408 6.89013C8.80408 6.09618 8.51926 5.40862 7.95731 4.84658C7.39536 4.28482 6.70779 4 5.91376 4C5.11954 4 4.43207 4.28482 3.87021 4.84668C3.30835 5.40853 3.02344 6.09609 3.02344 6.89013C3.02344 7.68434 3.30835 8.3719 3.8703 8.93376C4.43225 9.49552 5.11981 9.78043 5.91376 9.78043Z" fill="#FA373D"/>
<path d="M10.9718 13.2274C10.9556 12.9936 10.9228 12.7385 10.8745 12.4692C10.8258 12.1978 10.7631 11.9413 10.688 11.7068C10.6105 11.4645 10.505 11.2252 10.3747 10.9958C10.2393 10.7578 10.0804 10.5505 9.90207 10.38C9.71558 10.2015 9.48724 10.0581 9.22321 9.95341C8.96008 9.84932 8.66849 9.79659 8.35657 9.79659C8.23407 9.79659 8.1156 9.84685 7.88681 9.9958C7.746 10.0876 7.5813 10.1938 7.39746 10.3113C7.24026 10.4115 7.02731 10.5053 6.76428 10.5903C6.50766 10.6733 6.2471 10.7154 5.98993 10.7154C5.73276 10.7154 5.47229 10.6733 5.21539 10.5903C4.95264 10.5054 4.73969 10.4115 4.58267 10.3114C4.40057 10.195 4.23578 10.0888 4.09286 9.99571C3.86435 9.84676 3.74579 9.79649 3.62329 9.79649C3.31128 9.79649 3.01978 9.84932 2.75674 9.95351C2.49289 10.058 2.26447 10.2014 2.07779 10.38C1.89954 10.5507 1.74051 10.7579 1.60538 10.9958C1.4751 11.2252 1.36963 11.4644 1.29199 11.7069C1.21701 11.9414 1.1543 12.1978 1.10559 12.4692C1.05734 12.7382 1.02457 12.9933 1.00836 13.2277C0.992432 13.4573 0.984375 13.6956 0.984375 13.9363C0.984375 14.5627 1.1835 15.0698 1.57617 15.4438C1.96399 15.8129 2.47714 16.0001 3.10117 16.0001H8.87924C9.50327 16.0001 10.0162 15.8129 10.4041 15.4438C10.7969 15.0701 10.996 14.5629 10.996 13.9362C10.9959 13.6944 10.9878 13.4559 10.9718 13.2274Z" fill="#FA373D"/>
</g>
<defs>
<clipPath id="clip0">
<rect width="12" height="12" fill="white" transform="translate(0 4)"/>
</clipPath>
</defs>
</svg>
